<svg xmlns="http://www.w3.org/2000/svg" width="800" height="600" viewBox="0 0 800 600">
  <rect width="100%" height="100%" fill="#0f172a"/>
  <rect x="140" y="180" width="520" height="340" rx="40" ry="40" fill="#111c34" stroke="#f59e0b" stroke-width="10"/>
  <path d="M250 250 C250 200, 310 170, 370 180 C430 190, 470 220, 500 260 C530 300, 540 370, 510 430 C490 470, 450 500, 400 500 C330 500, 270 460, 250 390 C240 340, 240 300, 250 250 Z" fill="#1e293b" stroke="#f59e0b" stroke-width="8"/>
  <path d="M270 255 C310 235, 363 220, 405 230 C445 240, 475 270, 490 312" stroke="#f59e0b" stroke-width="5" fill="none"/>
  <path d="M290 285 C330 270, 370 265, 410 280" stroke="#f59e0b" stroke-width="5" fill="none"/>
  <path d="M300 330 C340 320, 390 318, 430 333" stroke="#f59e0b" stroke-width="5" fill="none"/>
  <path d="M290 380 C330 372, 372 370, 410 382" stroke="#f59e0b" stroke-width="5" fill="none"/>
  <text x="400" y="300" text-anchor="middle" fill="#e2e8f0" font-family="Arial, sans-serif" font-size="42" font-weight="700">Wilson A2000</text>
  <text x="400" y="360" text-anchor="middle" fill="#e2e8f0" font-family="Arial, sans-serif" font-size="30">Guante de baseball</text>
</svg>
