<svg xmlns="http://www.w3.org/2000/svg" width="800" height="600" viewBox="0 0 800 600">
  <rect width="100%" height="100%" fill="#0f172a"/>
  <path d="M250 250 C250 200, 300 170, 360 180 C430 190, 480 225, 520 275 C560 325, 565 395, 525 445 C492 485, 445 505, 390 500 C325 495, 265 455, 240 395 C225 350, 225 300, 250 250 Z" fill="#1e293b" stroke="#f59e0b" stroke-width="10"/>
  <path d="M270 255 C305 230, 350 220, 390 225 C430 230, 458 247, 480 280" stroke="#f59e0b" stroke-width="6" fill="none"/>
  <path d="M285 295 C320 280, 356 275, 395 282 C430 289, 455 305, 470 329" stroke="#f59e0b" stroke-width="6" fill="none"/>
  <path d="M300 340 C332 330, 368 328, 401 336 C430 343, 452 356, 468 378" stroke="#f59e0b" stroke-width="6" fill="none"/>
  <path d="M290 392 C322 384, 356 382, 395 388 C428 394, 447 408, 459 430" stroke="#f59e0b" stroke-width="6" fill="none"/>
  <path d="M250 250 L215 215" stroke="#f59e0b" stroke-width="10"/>
  <path d="M240 390 L205 430" stroke="#f59e0b" stroke-width="10"/>
  <path d="M258 245 C235 230, 210 215, 182 200" stroke="#f59e0b" stroke-width="8" fill="none"/>
  <circle cx="215" cy="215" r="18" fill="#f59e0b"/>
  <circle cx="205" cy="430" r="18" fill="#f59e0b"/>
</svg>
